<?xml version="1.0" encoding="utf-8"?>
<!-- Generator: Adobe Illustrator 20.1.0, SVG Export Plug-In . SVG Version: 6.00 Build 0)  -->
<svg version="1.1" id="Layer_1" xmlns="http://www.w3.org/2000/svg" xmlns:xlink="http://www.w3.org/1999/xlink" x="0px" y="0px"
	 viewBox="0 0 425.2 425.2" style="enable-background:new 0 0 425.2 425.2;" xml:space="preserve">
<style type="text/css">
	.st0{fill:#1B4D23;}
	.st1{fill:#1D5026;}
	.st2{fill:#3B3A3A;}
	.st3{fill:#84623C;}
	.st4{fill:none;}
	.st5{enable-background:new    ;}
	.st6{fill:#020203;}
	.st7{fill:#BCBBAD;}
	.st8{fill:#CFCFC1;}
	.st9{fill:#2D2E2B;}
	.st10{fill:#1F1F1E;}
	.st11{fill:#3A3A37;}
	.st12{fill:#131414;}
	.st13{fill:#030304;}
	.st14{fill:#931917;}
</style>
<g>
	<g>
		<polygon class="st0" points="279.7,205.1 183.8,202.2 274.1,109.4 375.7,208.1 		"/>
	</g>
	<g>
		<polygon class="st0" points="275.6,168.6 193.4,167.4 272.1,86.4 357.9,169.8 		"/>
	</g>
	<g>
		<polygon class="st0" points="275.9,138 193.4,136.5 272,55.6 358.3,139.5 		"/>
	</g>
	<g>
		<polygon class="st0" points="273.9,105 207,105 272,38 340.9,105 		"/>
	</g>
	<g>
		<polygon class="st1" points="115.6,212.8 28.2,210.1 110.4,126.1 202.9,215.5 		"/>
	</g>
	<g>
		<polygon class="st1" points="111.8,179.7 36.9,178.5 108.5,105.4 186.7,180.8 		"/>
	</g>
	<g>
		<polygon class="st1" points="112,152 36.9,150.6 108.4,77.5 187.1,153.4 		"/>
	</g>
	<g>
		<polygon class="st1" points="110.2,122.1 49.2,122.1 108.4,61.6 171.2,122.2 		"/>
	</g>
	<g>
		<rect x="177.7" y="187.9" class="st2" width="78.3" height="27"/>
	</g>
	<g>
		<ellipse class="st3" cx="207.8" cy="211.6" rx="186.1" ry="5.9"/>
	</g>
	<g>
		<ellipse class="st3" cx="303.5" cy="211.6" rx="88.1" ry="9"/>
	</g>
	<g>
		<path class="st3" d="M186.8,202.8c-7-6.2-11.4-12.3-9.8-13.7c1.6-1.4,8.5,2.5,15.5,8.7s11.4,12.3,9.8,13.7S193.8,209,186.8,202.8z
			"/>
	</g>
	<g>
		<path class="st3" d="M183.8,228.4c11.5-11.3,22.2-19.4,23.8-18s-6.4,11.5-17.9,22.8s-22.2,19.4-23.8,18
			C164.2,249.9,172.2,239.7,183.8,228.4z"/>
	</g>
	<g>
		<path class="st3" d="M69,221.8c8.4-8.2,16.5-13.9,18-12.7s-4,8.9-12.5,17.2c-8.4,8.2-16.5,13.9-18,12.7S60.6,230,69,221.8z"/>
	</g>
	<g>
		<path class="st3" d="M35.9,200.3c-10.9-8.7-18.4-17-16.9-18.6c1.6-1.5,11.7,4.3,22.6,13s18.4,17,16.9,18.6
			C56.9,214.8,46.8,209,35.9,200.3z"/>
	</g>
	<g>
		<path class="st3" d="M255.9,207.6c-4.6-5.5-7.1-10.8-5.4-11.9c1.6-1.1,6.7,2.4,11.3,7.9s7.1,10.8,5.4,11.9
			C265.6,216.6,260.5,213.1,255.9,207.6z"/>
	</g>
	<g>
		<path class="st3" d="M279.6,220.3c0.6,6.8-0.6,12.5-2.7,12.6c-2,0.1-4.2-5.3-4.7-12.1s0.6-12.5,2.7-12.6
			C276.9,208.1,279,213.5,279.6,220.3z"/>
	</g>
	<g>
		<path class="st3" d="M105.5,219.5c-4.6-5.5-7.1-10.8-5.4-11.9c1.6-1.1,6.7,2.4,11.3,7.9c4.6,5.5,7.1,10.8,5.4,11.9
			C115.2,228.5,110.2,224.9,105.5,219.5z"/>
	</g>
	<g>
		<path class="st3" d="M322.6,215.6c4.3-5.7,9.2-9.4,10.9-8.4c1.7,1-0.4,6.4-4.7,12.1c-4.3,5.7-9.2,9.4-10.9,8.4
			C316.1,226.7,318.2,221.3,322.6,215.6z"/>
	</g>
	<g>
		<rect x="-14.3" y="109.4" class="st4" width="430.2" height="106.6"/>
	</g>
	<g class="st5">
		<path class="st6" d="M126.8,180.8l-0.6,3c-1.6,0.2-2.8,0.3-3.7,0.3c-1.4,0-3.2-0.1-5.4-0.4c-2.4-0.2-4.5-0.4-6.2-0.4
			c-1.4,0-2.8,0.2-4.2,0.7c1.3-4,2.8-9.6,4.4-16.8l3.6-15.7l-12.8,0.5c-2.2,0.1-4.6,0.3-6.9,0.6c-2.1,9.3-4.4,16.2-6.6,20.7
			c-2.3,4.5-4.9,7.8-7.8,9.9c-2.9,2.1-5.7,3.2-8.4,3.2c-2.6,0-4.9-0.7-6.7-2.1c-1.4-1-2-2.2-2-3.7c0-0.9,0.3-1.6,0.8-2.2
			c0.5-0.6,1.2-0.9,1.9-0.9c1.2,0,2.5,1,3.8,2.9c0.8,1.2,1.4,1.9,1.9,2.2c0.5,0.3,1,0.5,1.6,0.5c2.5,0,4.8-2.2,6.9-6.6
			c2.2-4.4,5.3-15.3,9.5-32.7l4.6-19.2c-6.3,0-11.1,1.2-14.2,3.5c-3.2,2.3-4.8,4.9-4.8,7.8c0,1,0.4,2.2,1.3,3.7
			c0.8,1.4,1.1,2.5,1.1,3.4c0,1-0.3,1.8-0.9,2.5c-0.6,0.6-1.3,1-2.2,1c-1.1,0-2.1-0.6-2.8-1.8c-0.8-1.2-1.2-2.9-1.2-5.1
			c0-4.1,1.3-7.6,4-10.7c2.7-3.1,6.5-5.3,11.6-6.6c2.9-0.7,8.7-1.1,17.4-1.1c-2.3,5.1-5,14.1-7.9,27c8.4,0,15-0.3,19.8-1
			c2.7-10.1,5.1-17.2,7.2-21.2c2.1-4,4.4-6.9,7-8.7c2.6-1.8,5.5-2.7,8.7-2.7c2.8,0,4.9,0.6,6.4,1.8c1.5,1.2,2.3,2.5,2.3,4
			c0,0.9-0.3,1.6-0.8,2.1c-0.5,0.6-1.2,0.8-2.1,0.8c-1.1,0-2.4-0.9-3.7-2.6c-1.4-1.7-2.7-2.6-3.8-2.6c-2.4,0-4.7,2.4-7,7.3
			c-4.1,8.7-8.9,27-14.3,54.9c0.5,0.1,1.3,0.2,2.3,0.4c1.8,0.3,3.2,0.5,4.3,0.5C123.7,181.3,125.2,181.2,126.8,180.8z"/>
	</g>
	<g>
		<polygon class="st7" points="189.1,201.6 184.1,201.4 184.2,187.5 189.2,187.6 		"/>
	</g>
	<g>
		<polygon class="st7" points="200.6,203.9 195.2,203.7 195.3,187.9 200.7,188.1 		"/>
	</g>
	<g>
		<polygon class="st7" points="210.5,203.9 202.9,203.7 203,187.9 210.6,188.1 		"/>
	</g>
	<g>
		<polygon class="st7" points="223.1,203.9 215.5,203.7 215.6,187.9 223.2,188.1 		"/>
	</g>
	<g>
		<polygon class="st7" points="237.2,202.3 230.1,204.6 225.2,189.5 232.4,187.2 		"/>
	</g>
	<g>
		<polygon class="st7" points="248.1,202.5 240.5,202.3 240.5,186.5 248.1,186.7 		"/>
	</g>
	<g>
		<polygon class="st7" points="194.1,221.9 189.2,221.7 189.3,207.8 194.2,208 		"/>
	</g>
	<g>
		<polygon class="st7" points="204.5,222.9 196.9,222.7 197,206.9 204.6,207.1 		"/>
	</g>
	<g>
		<polygon class="st7" points="216.5,224.4 208.9,224.2 209,208.4 216.6,208.6 		"/>
	</g>
	<g>
		<polygon class="st7" points="230.6,221.6 223.2,223.5 219.7,208.2 227.1,206.3 		"/>
	</g>
	<g>
		<polygon class="st7" points="241,220.8 236.3,220.7 236.4,204.8 241.1,205 		"/>
	</g>
	<g>
		<polygon class="st7" points="250,221.9 244.3,221.7 244.4,205.9 250.1,206.1 		"/>
	</g>
	<g>
		<path class="st8" d="M282.9,131.1c-0.2,37.3-29.3,66.6-65.1,65.6s-64.6-32.1-64.4-69.4s29.3-66.6,65.1-65.6
			C254.3,62.7,283.1,93.8,282.9,131.1z"/>
	</g>
	<g>
		<path class="st9" d="M203,137.7c-0.1,9.9-7.1,17.8-15.7,17.5c-8.6-0.3-15.6-8.5-15.5-18.5c0.1-9.9,7.1-17.8,15.7-17.5
			S203,127.8,203,137.7z"/>
	</g>
	<g>
		<path class="st9" d="M263.4,137.8c-0.1,10.5-7.4,18.8-16.3,18.5s-16.1-9-16-19.5s7.4-18.8,16.3-18.5S263.5,127.3,263.4,137.8z"/>
	</g>
	<g>
		<path class="st8" d="M249.7,197.6l-64.8-1.9c-7.2-0.2-21.8-45.8-21.8-53.3l8.9,25.4c-12.5-32.3,5.9-13.4,13.1-13.2l64.8,1.9
			c7.2,0.2,26-17.6,12.9,13.9l13.1-31.5C275.9,146.5,256.8,197.8,249.7,197.6z"/>
	</g>
	<g>
		<path class="st10" d="M215.3,178.9l-11.2-0.5l10.7-45.6l17,46.8L215.3,178.9z"/>
	</g>
	<g>
		<polygon class="st11" points="215.8,177.6 206.7,177 214.8,140.1 229.2,178.4 		"/>
	</g>
	<g>
		<polygon class="st12" points="218.1,159.1 215.9,159.1 215.8,177.6 218,177.6 		"/>
	</g>
	<g>
		<path class="st8" d="M247.1,230.8h-60.2c-4.6,0-8.3-4.1-8.3-9.2l0,0c-11.2-88.7,2.1-17.9,8.3-9.2h60.2c4.6,0,16.7-65.9,8.3,9.2
			l0,0C255.4,226.6,251.7,230.8,247.1,230.8z"/>
	</g>
	<g>
		<path class="st13" d="M199.7,137.6c0,7.8-5.6,14-12.4,13.8c-6.8-0.2-12.3-6.7-12.2-14.6c0.1-7.9,5.6-14,12.4-13.8
			C194.2,123.3,199.7,129.8,199.7,137.6z"/>
	</g>
	<g>
		<path class="st13" d="M260.4,137.6c0,8.4-6,15.1-13.3,14.8c-7.3-0.2-13.2-7.2-13.1-15.7s6-15.1,13.3-14.8S260.5,129.2,260.4,137.6
			z"/>
	</g>
	<g class="st5">
		<path class="st6" d="M337,137.9h-2.6c0.2-1.6,0.2-3.1,0.2-4.4c0-4.7-1.1-8.2-3.3-10.3c-2.2-2.2-4.9-3.3-8.1-3.3
			c-4.5,0-8.9,1.7-13.4,5c-4.5,3.3-8.2,8-11,14c-2.9,6-4.3,12.2-4.3,18.7c0,6.6,1.4,11.4,4.2,14.6c2.8,3.1,6,4.7,9.5,4.7
			c2.1,0,4.1-0.3,6-0.9c1.9-0.6,3.7-1.5,5.5-2.7c1.5-5.5,2.2-9.1,2.2-11c0-0.9-0.3-1.6-0.9-2.1c-0.6-0.5-1.6-0.8-3.1-0.8
			c-0.5,0-1.7,0.1-3.7,0.3l0.4-2.6c1.4-0.3,2.8-0.4,4.2-0.4c1.1,0,2.5,0,4.2,0.1c1.3,0,2.3,0.1,2.9,0.1c1.1,0,2.9-0.1,5.2-0.3
			c1.2-0.1,2.3-0.2,3.2-0.2l-0.5,2.7c-1.6,0-2.7,0.3-3.4,1.1c-0.7,0.8-1.4,2.8-2.1,6.2c-2.6,11.9-5.2,20.5-7.7,25.9
			c-2.5,5.3-5.4,9.2-8.6,11.5c-3.2,2.3-6.7,3.5-10.4,3.5c-3.2,0-5.7-0.8-7.6-2.4c-1.9-1.6-2.9-3.3-2.9-5c0-0.9,0.3-1.7,0.9-2.4
			c0.6-0.7,1.3-1,2.1-1c1.1,0,2.3,0.8,3.7,2.5c1.5,1.9,2.8,3.1,3.6,3.7c0.9,0.6,1.8,0.8,2.8,0.8c2,0,3.7-0.9,5.3-2.6
			c3.1-3.4,6.1-11.2,9.1-23.5c-2.1,1.3-4.2,2.2-6.4,2.9s-4.3,1-6.6,1c-5.6,0-9.9-1.6-13.1-4.9c-4.3-4.3-6.4-10.4-6.4-18.1
			c0-7.1,1.6-13.7,4.9-19.9c3.2-6.2,7.7-11.3,13.5-15.3c5.8-4,11.2-6,16.4-6c2.8,0,6.1,0.5,9.9,1.5c3.8,0.9,6.7,1.4,8.7,1.5
			C337.9,126.4,337,132.4,337,137.9z"/>
	</g>
	<g class="st5">
		<path class="st14" d="M85.7,282.3l-0.3,1.7c-0.9,0.1-1.6,0.2-2.1,0.2c-0.8,0-1.8-0.1-3-0.2c-1.3-0.1-2.5-0.2-3.4-0.2
			c-0.8,0-1.5,0.1-2.4,0.4c0.7-2.2,1.5-5.4,2.5-9.4l2-8.8l-7.2,0.3c-1.3,0.1-2.5,0.2-3.9,0.3c-1.2,5.2-2.4,9.1-3.7,11.6
			c-1.3,2.5-2.7,4.3-4.4,5.5c-1.6,1.2-3.2,1.8-4.7,1.8c-1.5,0-2.7-0.4-3.8-1.2c-0.8-0.5-1.1-1.2-1.1-2.1c0-0.5,0.1-0.9,0.5-1.2
			c0.3-0.3,0.7-0.5,1.1-0.5c0.7,0,1.4,0.5,2.1,1.6c0.4,0.6,0.8,1.1,1.1,1.2c0.3,0.2,0.6,0.3,0.9,0.3c1.4,0,2.7-1.2,3.9-3.7
			c1.2-2.5,3-8.5,5.3-18.3l2.6-10.7c-3.5,0-6.2,0.6-8,1.9s-2.7,2.7-2.7,4.4c0,0.5,0.2,1.2,0.7,2.1c0.4,0.8,0.6,1.4,0.6,1.9
			c0,0.6-0.2,1-0.5,1.4c-0.3,0.4-0.7,0.5-1.2,0.5c-0.6,0-1.1-0.3-1.6-1c-0.4-0.7-0.7-1.6-0.7-2.9c0-2.3,0.7-4.3,2.2-6
			c1.5-1.7,3.6-3,6.5-3.7c1.6-0.4,4.9-0.6,9.7-0.6c-1.3,2.9-2.8,7.9-4.4,15.1c4.7,0,8.4-0.2,11.1-0.6c1.5-5.7,2.9-9.6,4-11.9
			c1.2-2.2,2.5-3.9,3.9-4.8s3.1-1.5,4.9-1.5c1.6,0,2.8,0.3,3.6,1c0.8,0.7,1.3,1.4,1.3,2.2c0,0.5-0.1,0.9-0.4,1.2
			c-0.3,0.3-0.7,0.5-1.2,0.5c-0.6,0-1.3-0.5-2.1-1.5c-0.8-1-1.5-1.5-2.1-1.5c-1.3,0-2.6,1.4-3.9,4.1c-2.3,4.8-5,15.1-8,30.7
			c0.3,0,0.7,0.1,1.3,0.2c1,0.2,1.8,0.3,2.4,0.3C84,282.6,84.8,282.5,85.7,282.3z"/>
		<path class="st14" d="M108.8,258.5l1.7-0.4l-2,7.4c-0.8,2.9-1.5,6.3-2.3,10.2c-0.4,2.1-0.6,3.4-0.6,4c0,0.6,0.2,0.9,0.7,0.9
			c0.3,0,0.7-0.2,1.4-0.6c1.1-0.7,2.1-1.6,3.2-2.7l0.8,1.1c-2,2-3.3,3.3-3.9,3.7c-1.1,0.9-2.2,1.5-3.2,1.9c-0.7,0.3-1.3,0.4-2,0.4
			c-0.5,0-0.8-0.1-1-0.4s-0.3-0.6-0.3-1c0-0.3,0.1-0.7,0.2-1.2l1.1-4c-1.5,2-3.3,3.7-5.4,5.2c-1.3,0.9-2.5,1.3-3.6,1.3
			c-1,0-1.8-0.4-2.4-1.2c-0.7-1.1-1.1-2.5-1.1-4.2c0-2.1,0.5-4.4,1.5-6.9c1-2.5,2.3-4.8,4-6.9c1.7-2.1,3.4-3.6,5.3-4.6
			c1.4-0.7,3.3-1.1,5.5-1.1c0.6,0,1.1,0,1.7,0.1L108.8,258.5z M105.5,263c-1-0.2-1.8-0.3-2.4-0.3c-1.6,0-3,0.5-4.2,1.5
			c-1.2,1-2.3,2.7-3.3,5.2c-1,2.5-1.5,5-1.5,7.5c0,1.3,0.2,2.3,0.6,2.9c0.4,0.6,0.9,0.9,1.6,0.9c1.2,0,2.5-0.7,3.9-2.2
			c1.4-1.5,2.4-3.5,3.1-6.3L105.5,263z"/>
		<path class="st14" d="M114.3,265.9l-0.9-1c2.3-2.4,4.1-4,5.4-4.8s2.5-1.2,3.4-1.2c0.4,0,0.7,0.1,0.9,0.3s0.3,0.4,0.3,0.6
			c0,0.2,0,0.5-0.1,0.9l-1.2,5.9c1.8-2.2,4.1-4.3,6.8-6.2c1.4-1,2.6-1.5,3.6-1.5c0.7,0,1.2,0.2,1.6,0.7c0.4,0.5,0.6,1.2,0.6,2.1
			c0,0.6-0.1,1.3-0.2,2.1c-0.3,1.3-1,4-2.2,8.3c-1.1,4-1.7,6.6-1.7,7.9c0,0.4,0.1,0.7,0.2,0.9s0.3,0.3,0.5,0.3
			c0.5,0,1.3-0.5,2.4-1.6c0.8-0.8,1.6-1.5,2.3-2.2l0.7,1.1c-1.6,2-3.3,3.6-5.1,4.8c-1.1,0.8-2,1.2-2.8,1.2c-0.7,0-1.2-0.3-1.6-0.8
			s-0.6-1.4-0.6-2.6c0-1.7,1-6.1,2.9-13c0.6-2.5,0.9-3.9,0.9-4.3c0-0.6-0.3-0.9-1-0.9c-0.7,0-1.6,0.4-2.7,1.2
			c-1.7,1.2-3,2.6-4.2,4.3c-0.7,1.1-1.3,2.7-1.8,5l-2.1,10.2h-3.9c0.7-2.9,1.4-5.7,1.9-8.4l2.4-11.1c0.1-0.4,0.1-0.8,0.1-1
			c0-0.5-0.2-0.8-0.5-0.8c-0.3,0-0.7,0.2-1.2,0.6C116.3,263.8,115.2,264.8,114.3,265.9z"/>
		<path class="st14" d="M150.1,259c1.6,0,2.8,0.3,3.6,1c0.9,0.7,1.3,1.5,1.3,2.3c0,0.5-0.2,1-0.5,1.4c-0.4,0.4-0.8,0.6-1.3,0.6
			c-0.3,0-0.6-0.1-0.9-0.2c-0.2-0.2-0.6-0.6-1.1-1.2c-0.9-1.3-1.7-1.9-2.6-1.9c-0.7,0-1.4,0.3-1.9,0.9c-0.6,0.6-0.8,1.4-0.8,2.3
			c0,0.8,0.2,1.6,0.5,2.3s1.2,2,2.7,3.6c2,2.3,2.9,4.5,2.9,6.6c0,2.1-0.8,3.9-2.4,5.4c-1.6,1.6-3.6,2.3-6.1,2.3
			c-2.1,0-3.7-0.5-4.7-1.4c-1-0.9-1.5-2.1-1.5-3.5c0-0.7,0.2-1.2,0.6-1.7c0.4-0.4,0.9-0.7,1.4-0.7c0.5,0,0.9,0.2,1.3,0.5
			c0.4,0.4,0.5,0.8,0.5,1.3c0,0.2,0,0.5,0,0.8c0,0.3,0,0.5,0,0.6c0,0.6,0.2,1.2,0.7,1.6c0.5,0.5,1.1,0.7,2,0.7c1,0,1.8-0.2,2.5-0.5
			c0.7-0.4,1.3-0.9,1.7-1.6s0.6-1.5,0.6-2.2c0-0.7-0.2-1.4-0.6-2.1s-1.2-1.9-2.6-3.5c-1.8-2.3-2.8-4.4-2.8-6.5c0-1.9,0.7-3.6,2.1-5
			C146.2,259.7,147.9,259,150.1,259z"/>
		<path class="st14" d="M186.9,248.6c2.2,0,4.2,0.6,6,1.7s3.2,2.8,4.2,4.9c1,2.1,1.5,4.6,1.5,7.4c0,3.7-0.9,7.3-2.7,10.9
			c-1.8,3.6-4,6.3-6.5,8.2c-2.6,1.8-5.4,2.8-8.6,2.8c-3.6,0-6.5-1.2-8.8-3.8c-2.2-2.5-3.4-5.8-3.4-9.9c0-3.9,0.9-7.7,2.7-11.3
			c1.8-3.6,4-6.4,6.6-8.2C180.5,249.5,183.5,248.6,186.9,248.6z M185,250.7c-2,0-3.9,0.7-5.7,2c-1.7,1.3-3.1,3.4-4.2,6.3
			s-1.6,6.1-1.6,9.9c0,4.3,0.9,7.6,2.6,10c1.7,2.3,3.9,3.5,6.4,3.5c1.9,0,3.7-0.7,5.4-2.1c1.7-1.4,3.1-3.6,4.2-6.6s1.7-6.4,1.7-10.3
			c0-4-0.8-7.1-2.5-9.4C189.5,251.8,187.5,250.7,185,250.7z"/>
		<path class="st14" d="M242.9,260.4h-1.4c0.1-0.9,0.1-1.7,0.1-2.4c0-2.6-0.6-4.6-1.8-5.8c-1.2-1.2-2.7-1.8-4.5-1.8
			c-2.5,0-5,0.9-7.5,2.8s-4.6,4.5-6.2,7.8c-1.6,3.3-2.4,6.8-2.4,10.5c0,3.7,0.8,6.4,2.4,8.1c1.6,1.7,3.4,2.6,5.3,2.6
			c1.2,0,2.3-0.2,3.4-0.5c1.1-0.3,2.1-0.8,3.1-1.5c0.8-3.1,1.2-5.1,1.2-6.1c0-0.5-0.2-0.9-0.5-1.2c-0.3-0.3-0.9-0.4-1.7-0.4
			c-0.3,0-1,0-2,0.1l0.2-1.4c0.8-0.2,1.6-0.2,2.4-0.2c0.6,0,1.4,0,2.4,0.1c0.7,0,1.3,0,1.6,0c0.6,0,1.6-0.1,2.9-0.2
			c0.7-0.1,1.3-0.1,1.8-0.1l-0.3,1.5c-0.9,0-1.5,0.2-1.9,0.6c-0.4,0.4-0.8,1.6-1.2,3.4c-1.5,6.7-2.9,11.5-4.3,14.5
			c-1.4,3-3,5.1-4.8,6.4s-3.7,1.9-5.8,1.9c-1.8,0-3.2-0.4-4.3-1.3s-1.6-1.8-1.6-2.8c0-0.5,0.2-1,0.5-1.3s0.7-0.6,1.2-0.6
			c0.6,0,1.3,0.5,2,1.4c0.9,1.1,1.5,1.7,2,2.1c0.5,0.3,1,0.5,1.5,0.5c1.1,0,2.1-0.5,2.9-1.4c1.7-1.9,3.4-6.3,5.1-13.2
			c-1.2,0.7-2.3,1.2-3.6,1.6s-2.4,0.5-3.7,0.5c-3.1,0-5.6-0.9-7.3-2.7c-2.4-2.4-3.6-5.8-3.6-10.1c0-3.9,0.9-7.7,2.7-11.1
			c1.8-3.5,4.3-6.3,7.6-8.6c3.2-2.2,6.3-3.4,9.2-3.4c1.6,0,3.4,0.3,5.5,0.8c2.1,0.5,3.8,0.8,4.9,0.8
			C243.4,253.9,242.9,257.3,242.9,260.4z"/>
		<path class="st14" d="M250.8,283.7h-3.9l1.9-7.9c0.9-3.9,1.7-7.5,2.4-11c0.2-0.9,0.2-1.4,0.2-1.6c0-0.5-0.2-0.7-0.6-0.7
			c-0.3,0-0.7,0.2-1.2,0.6c-0.5,0.4-1.5,1.4-3,3l-0.8-1c1.7-2,3.4-3.5,5.1-4.5c1.7-1,3-1.5,3.9-1.5c0.3,0,0.6,0.1,0.8,0.2
			c0.2,0.2,0.3,0.4,0.3,0.6c0,0.3-0.1,0.9-0.3,2l-1.2,5.3c1.8-3.1,3.8-5.8,6.1-8c1.1-1.1,2-1.6,2.7-1.6c0.5,0,1,0.2,1.3,0.6
			c0.4,0.4,0.5,0.8,0.5,1.3c0,0.5-0.2,1-0.5,1.3c-0.3,0.4-1.2,0.8-2.6,1.3c-1.3,0.5-2.4,1.1-3.2,1.8c-0.8,0.7-1.7,1.7-2.7,3.1
			c-1,1.4-1.7,2.6-2.1,3.7c-0.4,1-1,3.5-1.8,7.3L250.8,283.7z"/>
		<path class="st14" d="M276,276.3l0.9,1.3c-4.3,4.6-8,6.8-11.1,6.8c-1.3,0-2.2-0.5-2.9-1.4s-1-2.4-1-4.5c0-4.2,1.1-8.3,3.4-12.5
			c2.6-4.7,5.7-7.1,9.2-7.1c1.3,0,2.2,0.3,2.9,1c0.7,0.7,1,1.6,1,2.9c0,1.3-0.4,2.5-1.2,3.8s-2.2,2.5-4.3,3.8
			c-1,0.6-3.2,1.8-6.6,3.5c-0.2,1.1-0.2,2.1-0.2,3c0,1.4,0.2,2.4,0.6,2.9c0.4,0.5,1,0.8,1.7,0.8c0.7,0,1.5-0.2,2.4-0.7
			C272.1,279.4,273.8,278.2,276,276.3z M266.8,272.1c2.8-1.4,5-2.9,6.4-4.5c1-1.1,1.5-2.3,1.5-3.4c0-0.8-0.2-1.5-0.6-2
			s-0.9-0.7-1.6-0.7c-0.7,0-1.3,0.3-1.9,0.8c-0.8,0.7-1.5,1.8-2.1,3.3C267.7,267.7,267.1,269.8,266.8,272.1z"/>
		<path class="st14" d="M288,254.5l4.2-1.8l-1.9,8.2h5.5l-0.4,2.1h-5.5l-2.3,9.8c-0.7,2.9-1.1,5-1.1,6.1c0,0.5,0.1,0.9,0.3,1.1
			s0.5,0.4,0.8,0.4c0.5,0,1.4-0.4,2.5-1.1c1.5-1,2.9-2,4.2-3.3l1,1.3c-3.9,3.2-6.5,5.2-7.8,5.9c-1.3,0.7-2.4,1.1-3.2,1.1
			c-0.7,0-1.2-0.3-1.5-0.8s-0.6-1.4-0.6-2.6c0-1.4,0.3-3.6,1-6.4L286,263h-4.3l0.5-2.1h4.3L288,254.5z"/>
		<path class="st14" d="M316,258.5l1.7-0.4l-2,7.4c-0.8,2.9-1.5,6.3-2.3,10.2c-0.4,2.1-0.6,3.4-0.6,4c0,0.6,0.2,0.9,0.7,0.9
			c0.3,0,0.7-0.2,1.4-0.6c1.1-0.7,2.1-1.6,3.2-2.7l0.8,1.1c-2,2-3.3,3.3-3.9,3.7c-1.1,0.9-2.2,1.5-3.2,1.9c-0.7,0.3-1.3,0.4-2,0.4
			c-0.5,0-0.8-0.1-1-0.4s-0.3-0.6-0.3-1c0-0.3,0.1-0.7,0.2-1.2l1.1-4c-1.5,2-3.3,3.7-5.4,5.2c-1.3,0.9-2.5,1.3-3.6,1.3
			c-1,0-1.8-0.4-2.4-1.2c-0.7-1.1-1.1-2.5-1.1-4.2c0-2.1,0.5-4.4,1.5-6.9c1-2.5,2.3-4.8,4-6.9c1.7-2.1,3.4-3.6,5.3-4.6
			c1.4-0.7,3.3-1.1,5.5-1.1c0.6,0,1.1,0,1.7,0.1L316,258.5z M312.7,263c-1-0.2-1.8-0.3-2.4-0.3c-1.6,0-3,0.5-4.2,1.5
			s-2.3,2.7-3.3,5.2c-1,2.5-1.5,5-1.5,7.5c0,1.3,0.2,2.3,0.6,2.9c0.4,0.6,0.9,0.9,1.6,0.9c1.2,0,2.5-0.7,3.9-2.2
			c1.4-1.5,2.4-3.5,3.1-6.3L312.7,263z"/>
		<path class="st14" d="M332.4,259c1.6,0,2.8,0.3,3.6,1c0.9,0.7,1.3,1.5,1.3,2.3c0,0.5-0.2,1-0.5,1.4c-0.4,0.4-0.8,0.6-1.3,0.6
			c-0.3,0-0.6-0.1-0.9-0.2c-0.2-0.2-0.6-0.6-1.1-1.2c-0.9-1.3-1.7-1.9-2.6-1.9c-0.7,0-1.4,0.3-1.9,0.9s-0.8,1.4-0.8,2.3
			c0,0.8,0.2,1.6,0.5,2.3s1.2,2,2.7,3.6c2,2.3,2.9,4.5,2.9,6.6c0,2.1-0.8,3.9-2.4,5.4c-1.6,1.6-3.6,2.3-6.1,2.3
			c-2.1,0-3.7-0.5-4.7-1.4s-1.5-2.1-1.5-3.5c0-0.7,0.2-1.2,0.6-1.7c0.4-0.4,0.9-0.7,1.4-0.7c0.5,0,0.9,0.2,1.3,0.5
			c0.4,0.4,0.5,0.8,0.5,1.3c0,0.2,0,0.5,0,0.8c0,0.3,0,0.5,0,0.6c0,0.6,0.2,1.2,0.7,1.6c0.5,0.5,1.1,0.7,2,0.7c1,0,1.8-0.2,2.5-0.5
			c0.7-0.4,1.3-0.9,1.7-1.6s0.6-1.5,0.6-2.2c0-0.7-0.2-1.4-0.6-2.1c-0.4-0.7-1.2-1.9-2.6-3.5c-1.8-2.3-2.8-4.4-2.8-6.5
			c0-1.9,0.7-3.6,2.1-5C328.4,259.7,330.2,259,332.4,259z"/>
		<path class="st14" d="M66.4,327.5l0.3-1.3c1.9-0.2,4.2-0.6,6.8-1.3c-0.8,2.2-1.4,4.6-2,7.4l-1.7,8.2c-1.3,5.9-2.7,10.4-4.2,13.4
			c1.5,0.3,2.9,0.5,4,0.5c3.1,0,5.8-0.7,8.1-2.2c2.3-1.4,4.1-3.5,5.5-6.3s2-5.8,2-9.1c0-4.4-1.1-7.9-3.4-10.5c-2.3-2.6-5.3-4-9-4
			c-3.1,0-6.1,0.8-8.8,2.5c-2.8,1.6-5,3.8-6.6,6.5c-1.6,2.7-2.4,5.3-2.4,7.9c0,2.5,1,4.3,3,5.5c0.6,0.4,0.9,0.7,1.1,0.9
			c0.2,0.3,0.3,0.6,0.3,0.9c0,0.5-0.2,0.9-0.5,1.2c-0.3,0.4-0.7,0.5-1.1,0.5c-0.9,0-1.9-0.7-2.7-2.1c-1.2-1.9-1.8-3.9-1.8-5.9
			c0-3.4,0.9-6.6,2.7-9.7c1.8-3.1,4.3-5.6,7.6-7.5c3.2-1.9,6.8-2.8,10.8-2.8c4.9,0,8.8,1.4,11.6,4.3c2.9,2.9,4.3,6.5,4.3,10.9
			c0,4-1,7.8-3,11.1c-2,3.4-4.4,5.8-7.3,7.2c-2.9,1.4-5.7,2.2-8.5,2.2c-0.9,0-2.5-0.1-4.8-0.3c-1.9-0.2-3.7-0.2-5.4-0.2
			c-0.8,0-2,0-3.6,0.1l0.6-1.4c1.6-0.1,2.6-0.3,3-0.5c0.4-0.2,0.7-0.6,1-1.1c0.5-0.9,1.2-2.9,2.1-5.9l1.8-7.6l2.1-9.6
			c0.1-0.5,0.2-0.9,0.2-1.2c0-0.3-0.1-0.6-0.3-0.7c-0.2-0.2-0.4-0.3-0.7-0.3C67,327.4,66.8,327.4,66.4,327.5z"/>
		<path class="st14" d="M104.9,331c1.7,0,3.2,0.8,4.3,2.3c1.1,1.5,1.7,3.6,1.7,6.4c0,4.3-1.4,8.2-4.1,11.7c-2.8,3.4-5.7,5.2-8.7,5.2
			c-1.9,0-3.4-0.7-4.6-2.1c-1.2-1.4-1.7-3.2-1.7-5.6c0-4.1,1.1-7.9,3.2-11.4C97.6,333.2,101,331,104.9,331z M102.7,333.2
			c-1.5,0-3,1.2-4.4,3.6c-1.4,2.4-2.1,5.7-2.1,9.8c0,2.5,0.4,4.5,1.3,6c0.6,1.1,1.5,1.6,2.5,1.6c1.5,0,2.8-1,4.1-3
			c1.6-2.6,2.3-5.9,2.3-9.8c0-2.9-0.4-5-1.1-6.3C104.7,333.9,103.8,333.2,102.7,333.2z M102.4,322c0.7,0,1.2,0.3,1.7,0.8
			s0.7,1.2,0.7,1.9c0,0.7-0.2,1.4-0.7,1.9c-0.5,0.5-1.1,0.8-1.7,0.8c-0.7,0-1.3-0.3-1.7-0.8c-0.5-0.5-0.7-1.2-0.7-1.9
			c0-0.8,0.2-1.4,0.7-1.9S101.7,322,102.4,322z M110,322.1c0.7,0,1.3,0.3,1.7,0.8c0.5,0.5,0.7,1.2,0.7,1.9c0,0.8-0.2,1.4-0.7,1.9
			c-0.5,0.5-1.1,0.8-1.7,0.8c-0.7,0-1.2-0.3-1.7-0.8s-0.7-1.2-0.7-1.9c0-0.7,0.2-1.4,0.7-1.9S109.3,322.1,110,322.1z"/>
		<path class="st14" d="M133.9,349.6l0.7,1.1c-2.4,2.2-4.1,3.7-5.3,4.4c-1.6,1-2.8,1.5-3.8,1.5c-0.4,0-0.8-0.1-1-0.4
			s-0.4-0.6-0.4-0.9c0-0.3,0.1-0.9,0.3-1.6l0.9-3.6c-2.1,2.5-3.9,4.2-5.3,5.1c-1.4,0.9-2.7,1.3-3.8,1.3c-0.9,0-1.7-0.5-2.4-1.4
			c-0.6-0.9-1-2.2-1-4c0-2.8,0.9-6,2.6-9.6c1.7-3.6,3.6-6.3,5.8-8c2.1-1.7,4-2.6,5.8-2.6c0.4,0,1,0.1,1.7,0.2
			c0.8-3.8,1.6-6.6,2.4-8.3c0.8-1.7,1.7-3.3,2.9-4.5c1.2-1.3,2.6-2.2,4.1-2.9c1.5-0.7,3-1,4.3-1c0.7,0,1.3,0.2,1.7,0.6
			s0.6,0.9,0.6,1.6c0,0.6-0.2,1.1-0.6,1.5s-0.9,0.6-1.6,0.6c-0.4,0-1.3-0.1-2.5-0.3c-1.2-0.2-2-0.3-2.5-0.3c-0.6,0-1.2,0.2-1.6,0.6
			c-0.5,0.4-0.9,1.3-1.3,2.7c-0.3,0.9-0.9,3.7-1.9,8.4l-3.7,17.7c-0.4,2.1-0.7,3.5-0.7,4.2c0,0.7,0.3,1.1,0.8,1.1
			c0.3,0,0.7-0.1,1.1-0.4C131,352,132.2,351.1,133.9,349.6z M128.3,334.5c-1.4-0.4-2.4-0.5-3-0.5c-1.2,0-2.3,0.5-3.5,1.5
			c-1.1,1-2.2,3-3.3,6c-1.1,3-1.6,5.5-1.6,7.7c0,1,0.2,1.8,0.7,2.5c0.5,0.6,1,1,1.7,1c0.7,0,1.6-0.4,2.5-1.1
			c1.4-1.1,2.4-2.4,3.2-3.9c0.5-1,1.1-3.4,1.9-7.2L128.3,334.5z"/>
		<path class="st14" d="M148.4,348.6l0.9,1.1c-1.4,1.7-3,3.3-4.9,4.7c-1.9,1.4-3.4,2.1-4.7,2.1c-0.5,0-1-0.2-1.4-0.7
			c-0.4-0.5-0.5-1.1-0.5-1.9c0-1.6,0.5-4.8,1.6-9.7l2.9-12.9c1-4.6,1.9-7.8,2.6-9.3c1.1-2.4,2.6-4.3,4.6-5.6c2-1.3,4.1-2,6.3-2
			c0.8,0,1.4,0.2,1.8,0.6c0.4,0.4,0.6,0.9,0.6,1.5c0,0.6-0.2,1.1-0.6,1.5c-0.4,0.4-1,0.6-1.8,0.6c-0.5,0-1.3-0.1-2.2-0.3
			c-0.8-0.2-1.6-0.2-2.4-0.2s-1.3,0.2-1.6,0.5c-0.5,0.5-1,1.4-1.4,2.9s-1.1,4.5-2,8.9l-2.6,12.3c-1.3,6.2-2,9.4-2,9.6
			c0,0.6,0.2,0.9,0.6,0.9c0.4,0,1-0.3,1.7-0.8C145.5,351.5,146.9,350.2,148.4,348.6z"/>
		<path class="st14" d="M151.2,337.8l-1.2-1c1.8-2.1,3.4-3.7,4.8-4.6c1.5-0.9,2.7-1.4,3.7-1.4c0.6,0,1,0.1,1.3,0.4
			c0.3,0.3,0.4,0.6,0.4,1.1c0,0.6-0.6,3-1.7,7.2c-1.9,6.9-2.8,11.1-2.8,12.5c0,0.3,0.1,0.5,0.2,0.7c0.1,0.2,0.3,0.3,0.4,0.3
			c0.6,0,2-1.2,4.3-3.6l1,1.1c-2.4,2.5-4.2,4.1-5.3,4.8c-1.1,0.7-2,1.1-2.7,1.1c-0.6,0-1.1-0.2-1.5-0.6c-0.4-0.4-0.5-1-0.5-1.8
			c0-2.4,1.3-8.4,4-17.9c0.1-0.4,0.2-0.8,0.2-1.2c0-0.4-0.2-0.6-0.5-0.6c-0.4,0-0.8,0.2-1.2,0.5
			C153.8,335.1,152.8,336.1,151.2,337.8z M161.6,318.4c0.5,0,1,0.2,1.4,0.6c0.4,0.4,0.5,0.9,0.5,1.5c0,0.9-0.3,1.6-0.8,2.3
			c-0.5,0.7-1.1,1-1.8,1c-0.5,0-1-0.2-1.3-0.6c-0.4-0.4-0.5-0.9-0.5-1.6c0-0.9,0.3-1.6,0.8-2.2C160.3,318.7,160.9,318.4,161.6,318.4
			z"/>
		<path class="st14" d="M181.2,330.8l2.1-0.5c-1.3,4.6-2.5,9.2-3.5,13.7c-0.8,3.3-1.3,6-1.6,8.2c-0.2,1.1-0.2,2.5-0.3,4.2
			c0,2.8-0.3,5.1-0.8,6.8c-0.7,2.4-2.1,4.3-4.1,5.8c-2,1.5-4.4,2.2-7.2,2.2c-2.4,0-4.3-0.6-5.6-1.9s-2.1-2.7-2.1-4.3
			c0-1.6,0.5-3.1,1.6-4.4c0.8-1,2.5-2.3,5.1-3.8c1.3-0.8,2.5-1.5,3.7-2.3c-1.3,0.7-2.3,1.1-3.1,1.1c-0.7,0-1.2-0.3-1.7-1
			s-0.8-1.6-0.8-2.7c0-3.6,1-7.2,2.9-10.7c1.9-3.5,4.3-6.2,7-8c1.7-1.1,3.8-1.6,6.3-1.6c0.5,0,1.1,0,1.8,0.1L181.2,330.8z
			 M174.7,351.1c-1.2,1.2-3.5,3.1-7,5.7c-3,2.3-4.9,3.9-5.6,4.9c-0.7,1-1,2.1-1,3.2c0,1.1,0.4,2.1,1.3,3c0.9,0.9,2,1.3,3.3,1.3
			c1.2,0,2.4-0.3,3.5-1s2.1-1.6,3-2.8s1.4-2.6,1.7-4.2s0.5-3.6,0.5-6.2C174.4,354.5,174.5,353.2,174.7,351.1z M178.3,335.2
			c-0.8-0.2-1.6-0.3-2.3-0.3c-1.7,0-3.1,0.5-4.3,1.5c-1.2,1-2.2,2.6-3.1,4.9c-1.2,3.3-1.8,6-1.8,8.2c0,0.9,0.2,1.7,0.7,2.3
			c0.5,0.6,1,0.9,1.6,0.9c0.7,0,1.6-0.4,2.6-1.1c1-0.8,1.9-1.7,2.6-2.8c0.7-1.1,1.3-3.1,2-5.9L178.3,335.2z"/>
		<path class="st14" d="M203.2,330.5l1.7-0.4l-2,7.4c-0.8,2.9-1.5,6.3-2.3,10.2c-0.4,2.1-0.6,3.4-0.6,4c0,0.6,0.2,0.9,0.7,0.9
			c0.3,0,0.7-0.2,1.4-0.6c1.1-0.7,2.1-1.6,3.2-2.7l0.8,1.1c-2,2-3.3,3.3-3.9,3.7c-1.1,0.9-2.2,1.5-3.2,1.9c-0.7,0.3-1.3,0.4-2,0.4
			c-0.5,0-0.8-0.1-1-0.4s-0.3-0.6-0.3-1c0-0.3,0.1-0.7,0.2-1.2l1.1-4c-1.5,2-3.3,3.7-5.4,5.2c-1.3,0.9-2.5,1.3-3.6,1.3
			c-1,0-1.8-0.4-2.4-1.2c-0.7-1.1-1.1-2.5-1.1-4.2c0-2.1,0.5-4.4,1.5-6.9c1-2.5,2.3-4.8,4-6.9c1.7-2.1,3.4-3.6,5.3-4.6
			c1.4-0.7,3.3-1.1,5.5-1.1c0.6,0,1.1,0,1.7,0.1L203.2,330.5z M199.9,335c-1-0.2-1.8-0.3-2.4-0.3c-1.6,0-3,0.5-4.2,1.5
			c-1.2,1-2.3,2.7-3.3,5.2c-1,2.5-1.5,5-1.5,7.5c0,1.3,0.2,2.3,0.6,2.9c0.4,0.6,0.9,0.9,1.6,0.9c1.2,0,2.5-0.7,3.9-2.2
			c1.4-1.5,2.4-3.5,3.1-6.3L199.9,335z"/>
		<path class="st14" d="M249.6,354.4l-0.3,1.7c-0.6,0.1-1.2,0.1-1.7,0.1c-0.7,0-1.5-0.1-2.5-0.2c-1.7-0.2-2.7-0.3-3.2-0.3
			c-0.7,0-1.9,0.1-3.4,0.4c0.5-1.5,1-3.1,1.4-4.8c0.3-1.2,0.5-3.2,0.8-6.2c-2.1,0-5.3,0-9.6,0.1c-4.5,7.6-7.8,12.3-9.9,14.3
			c-2.1,1.9-4.1,2.9-6,2.9c-1,0-1.7-0.2-2.2-0.6c-0.5-0.4-0.7-1-0.7-1.6c0-0.5,0.1-0.9,0.4-1.3s0.6-0.5,1.1-0.5c0.2,0,0.6,0,1,0.1
			c1.1,0.3,1.8,0.4,2.1,0.4c1.2,0,2.5-0.7,3.9-2.2c2.3-2.4,5.8-7.5,10.3-15.2c5.2-8.7,9.3-15.1,12.5-19.1c-4.4,0.4-7.1,0.8-8.2,1.2
			c-1.5,0.5-2.6,1.3-3.3,2.3c-0.7,1-1.1,2.1-1.1,3.2c0,0.4,0.1,0.8,0.3,1.5c0.2,0.7,0.4,1.3,0.4,1.6c0,0.4-0.2,0.8-0.5,1.1
			c-0.3,0.3-0.7,0.5-1.1,0.5c-0.6,0-1.1-0.2-1.4-0.7s-0.5-1.2-0.5-2.2c0-1.4,0.3-2.8,1-4.1c0.7-1.3,1.6-2.4,2.8-3.3
			c1.2-0.9,2.8-1.6,4.6-2c1-0.3,2.6-0.5,5-0.7c2.1-0.2,3.4-0.4,3.9-0.6c0.8-0.3,1.6-0.8,2.4-1.5c-0.5,2.4-0.9,4.5-1.1,6.3L245,342
			l-1.2,12.1c1.3,0.4,2.5,0.6,3.5,0.6C248.1,354.6,248.8,354.6,249.6,354.4z M241.1,342.9c0.8-7.9,1.7-13.7,2.5-17.4
			c-2.2,3.3-3.6,5.4-4.2,6.2l-6.8,11.2c1.5,0.1,3.6,0.1,6.3,0.1C239.6,343,240.3,343,241.1,342.9z M242.7,311.4
			c0.7,0,1.3,0.3,1.7,0.8c0.5,0.5,0.7,1.2,0.7,1.9c0,0.7-0.2,1.4-0.7,1.9c-0.5,0.5-1.1,0.8-1.7,0.8c-0.7,0-1.3-0.3-1.7-0.8
			c-0.5-0.5-0.7-1.2-0.7-1.9c0-0.8,0.2-1.4,0.7-1.9C241.5,311.7,242.1,311.4,242.7,311.4z M250.4,311.5c0.7,0,1.3,0.3,1.7,0.8
			s0.7,1.2,0.7,1.9c0,0.8-0.2,1.4-0.7,1.9s-1.1,0.8-1.7,0.8c-0.7,0-1.2-0.3-1.7-0.8c-0.5-0.5-0.7-1.2-0.7-1.9c0-0.7,0.2-1.4,0.7-1.9
			C249.1,311.7,249.7,311.5,250.4,311.5z"/>
		<path class="st14" d="M265.7,333.8c-1.4,2.4-2.3,4.5-2.8,6.4c-0.5,1.8-0.8,3.7-0.8,5.5c0,1.7,0.3,4.3,1,7.9
			c3.9-3.3,6.7-6.4,8.3-9.2c1.6-2.9,2.4-5.3,2.4-7.4c0-0.6-0.2-1.4-0.6-2.3c-0.4-1-0.7-1.7-0.7-2.2c0-0.5,0.2-1,0.5-1.3
			c0.3-0.4,0.7-0.6,1.1-0.6c0.6,0,1.1,0.3,1.4,0.8s0.5,1.5,0.5,2.8c0,4.2-1.3,8.2-4,12.2c-3.3,4.8-7.4,8.6-12.4,11.2
			c-0.1-0.9-0.4-2.4-0.7-4.4c-0.7-4-1.1-6.9-1.1-8.4c0-2.1,0.4-4.1,1.3-6.1c0.9-2,2.2-3.7,3.9-5.1c-3.1,0.1-5.3,0.4-6.7,1.1
			c-1,0.5-1.4,1.1-1.4,1.8c0,0.3,0.1,0.7,0.4,1.4c0.2,0.5,0.2,0.8,0.2,1.1c0,0.3-0.1,0.6-0.4,0.8c-0.2,0.2-0.5,0.4-0.9,0.4
			c-0.5,0-0.8-0.2-1.2-0.6c-0.3-0.4-0.5-1-0.5-1.7c0-1.2,0.3-2.2,1-3.1c0.7-0.9,1.9-1.7,3.6-2.2c1.7-0.5,3.9-0.8,6.7-0.7
			c1.1-0.5,1.8-0.8,2.1-0.8c0.3,0,0.5,0.1,0.8,0.4c0.2,0.3,0.3,0.5,0.3,0.8C267.3,332.8,266.8,333.3,265.7,333.8z"/>
		<path class="st14" d="M291.2,348.3l0.9,1.3c-4.3,4.6-8,6.8-11.1,6.8c-1.3,0-2.2-0.5-2.9-1.4c-0.7-0.9-1-2.4-1-4.5
			c0-4.2,1.1-8.3,3.4-12.5c2.6-4.7,5.7-7.1,9.2-7.1c1.3,0,2.2,0.3,2.9,1c0.7,0.7,1,1.6,1,2.9c0,1.3-0.4,2.5-1.2,3.8
			s-2.2,2.5-4.3,3.8c-1,0.6-3.2,1.8-6.6,3.5c-0.2,1.1-0.2,2.1-0.2,3c0,1.4,0.2,2.4,0.6,2.9c0.4,0.5,1,0.8,1.7,0.8
			c0.7,0,1.5-0.2,2.4-0.7C287.3,351.4,289,350.2,291.2,348.3z M281.9,344.1c2.8-1.4,5-2.9,6.4-4.5c1-1.1,1.5-2.3,1.5-3.4
			c0-0.8-0.2-1.5-0.6-2s-0.9-0.7-1.5-0.7c-0.7,0-1.3,0.3-1.9,0.8c-0.8,0.7-1.5,1.8-2.1,3.3C282.9,339.7,282.3,341.8,281.9,344.1z"/>
		<path class="st14" d="M296.6,337.9l-0.9-1c2.3-2.4,4.1-4,5.4-4.8s2.5-1.2,3.4-1.2c0.4,0,0.7,0.1,0.9,0.3s0.3,0.4,0.3,0.6
			c0,0.2,0,0.5-0.1,0.9l-1.2,5.9c1.8-2.2,4.1-4.3,6.8-6.2c1.4-1,2.6-1.5,3.6-1.5c0.7,0,1.2,0.2,1.6,0.7c0.4,0.5,0.6,1.2,0.6,2.1
			c0,0.6-0.1,1.3-0.2,2.1c-0.3,1.3-1,4-2.2,8.3c-1.1,4-1.7,6.6-1.7,7.9c0,0.4,0.1,0.7,0.2,0.9s0.3,0.3,0.5,0.3
			c0.5,0,1.3-0.5,2.4-1.6c0.8-0.8,1.6-1.5,2.3-2.2l0.7,1.1c-1.6,2-3.3,3.6-5.1,4.8c-1.1,0.8-2,1.2-2.8,1.2c-0.7,0-1.2-0.3-1.6-0.8
			s-0.6-1.4-0.6-2.6c0-1.7,1-6.1,2.9-13c0.6-2.5,0.9-3.9,0.9-4.3c0-0.6-0.3-0.9-1-0.9c-0.7,0-1.6,0.4-2.7,1.2
			c-1.7,1.2-3,2.6-4.2,4.3c-0.7,1.1-1.3,2.7-1.8,5l-2.1,10.2H297c0.7-2.9,1.4-5.7,1.9-8.4l2.4-11.1c0.1-0.4,0.1-0.8,0.1-1
			c0-0.5-0.2-0.8-0.5-0.8c-0.3,0-0.7,0.2-1.2,0.6C298.6,335.8,297.5,336.8,296.6,337.9z"/>
		<path class="st14" d="M328.2,326.5l4.2-1.8l-1.9,8.2h5.5l-0.4,2.1H330l-2.3,9.8c-0.7,2.9-1.1,5-1.1,6.1c0,0.5,0.1,0.9,0.3,1.1
			c0.2,0.2,0.5,0.4,0.8,0.4c0.5,0,1.4-0.4,2.5-1.1c1.5-1,2.9-2,4.2-3.3l1,1.3c-3.9,3.2-6.5,5.2-7.8,5.9c-1.3,0.7-2.4,1.1-3.2,1.1
			c-0.7,0-1.2-0.3-1.5-0.8s-0.6-1.4-0.6-2.6c0-1.4,0.3-3.6,1-6.4l2.7-11.7h-4.3l0.5-2.1h4.3L328.2,326.5z"/>
		<path class="st14" d="M338,337l-0.8-1.4l2-1.5c1.9-1.4,3.3-2.4,4-2.8c0.4-0.2,0.8-0.4,1.2-0.4c0.4,0,0.7,0.2,1.1,0.7
			c1.6,2.2,2.9,5.1,3.9,8.8c1.1,3.7,1.6,7.2,1.6,10.7c0,0.4,0,1.1-0.1,2c3-6.1,4.5-10.9,4.5-14.5c0-0.7-0.2-1.7-0.5-3
			c-0.3-1.4-0.5-2.3-0.5-2.9c0-0.6,0.2-1,0.5-1.4c0.3-0.4,0.7-0.6,1.2-0.6c0.6,0,1.1,0.3,1.5,0.8c0.4,0.5,0.6,1.3,0.6,2.3
			c0,2.5-0.5,5.7-1.6,9.4c-1,3.8-2.7,7.8-4.9,12.1c-2.2,4.3-4.3,7.5-6.1,9.6c-1.8,2.1-3.6,3.6-5.4,4.5s-3.4,1.4-4.9,1.4
			c-1.2,0-2-0.2-2.6-0.7s-0.9-1-0.9-1.7c0-0.6,0.2-1.1,0.7-1.5c0.5-0.4,1.1-0.6,1.9-0.6c0.6,0,1.4,0.1,2.5,0.4
			c1.1,0.3,1.9,0.4,2.3,0.4c1.1,0,2.2-0.5,3.4-1.5c1.6-1.4,2.9-3,3.9-4.9c1-1.9,1.4-3.8,1.4-5.7c0-2.7-0.4-6-1.1-9.8
			c-0.7-3.8-1.7-6.7-3-8.7c-0.7-1-1.4-1.6-2.1-1.6C340.9,335.1,339.6,335.7,338,337z"/>
		<path class="st14" d="M364.7,355.7h-3.9l1.9-7.9c0.9-3.9,1.7-7.5,2.4-11c0.2-0.9,0.2-1.4,0.2-1.6c0-0.5-0.2-0.7-0.6-0.7
			c-0.3,0-0.7,0.2-1.2,0.6c-0.5,0.4-1.5,1.4-3,3l-0.8-1c1.7-2,3.4-3.5,5.1-4.5c1.7-1,3-1.5,3.9-1.5c0.3,0,0.6,0.1,0.8,0.2
			c0.2,0.2,0.3,0.4,0.3,0.6c0,0.3-0.1,0.9-0.3,2l-1.2,5.3c1.8-3.1,3.8-5.8,6.1-8c1.1-1.1,2-1.6,2.7-1.6c0.5,0,1,0.2,1.3,0.6
			c0.4,0.4,0.5,0.8,0.5,1.3c0,0.5-0.2,1-0.5,1.3c-0.3,0.4-1.2,0.8-2.6,1.3c-1.3,0.5-2.4,1.1-3.2,1.8c-0.8,0.7-1.7,1.7-2.7,3.1
			c-1,1.4-1.7,2.6-2.1,3.7c-0.4,1-1,3.5-1.8,7.3L364.7,355.7z"/>
	</g>
</g>
</svg>
